<?xml version="1.0" encoding="utf-8"?>
<svg version="1.1" x="0px" y="0px" viewBox="1.859 1.785 28.282 28.299" enable-background="new 0 0 32 32" xmlns="http://www.w3.org/2000/svg">
  <path d="M25,30H7c-1.729,0-5-1.045-5-5V7c0-1.729,1.045-5,5-5h18c1.729,0,5,1.045,5,5v18C30,26.729,28.955,30,25,30z M24.994,4H7  C4.177,4,4.006,6.503,4,7.005V25c0,2.823,2.503,2.994,3.005,3H25c2.823,0,2.994-2.504,3-3.006V7C28,4.177,25.496,4.006,24.994,4z   M7,24c-0.158,0-0.316-0.037-0.462-0.113C6.208,23.715,6,23.373,6,23V9c0-0.373,0.208-0.715,0.538-0.887  c0.332-0.171,0.73-0.146,1.035,0.068l10,7C17.841,15.368,18,15.674,18,16s-0.159,0.632-0.427,0.819l-10,7  C7.402,23.939,7.202,24,7,24z M8,10.92v10.159L15.256,16L8,10.92z M22,23V9c0-0.552-0.447-1-1-1s-1,0.448-1,1v14  c0,0.553,0.447,1,1,1S22,23.553,22,23z M26,23V9c0-0.552-0.447-1-1-1s-1,0.448-1,1v14c0,0.553,0.447,1,1,1S26,23.553,26,23z"/>
  <text x="0" y="47" fill="#000000" font-size="5px" font-weight="bold" font-family="'Helvetica Neue', Helvetica, Arial-Unicode, Arial, Sans-serif" style="white-space: pre;">Created by Sebastian Belalcazar Lareo</text>
  <text x="0" y="52" fill="#000000" font-size="5px" font-weight="bold" font-family="'Helvetica Neue', Helvetica, Arial-Unicode, Arial, Sans-serif" style="white-space: pre;">from the Noun Project</text>
</svg>